<svg xmlns="http://www.w3.org/2000/svg" viewBox="143 321 1634 447" fill="currentColor" role="img" aria-label="DAOIA">
  <path d="M163.21,739.12v-397.5h123.17c61.21,0,108.33,17.27,141.37,51.79,33.03,34.53,49.55,83.7,49.55,147.53s-16.24,112.35-48.71,146.68c-32.47,34.34-78.76,51.51-138.85,51.51h-126.53ZM211.36,692.09h75.02c46.65,0,81.74-12.6,105.25-37.79,23.52-25.19,35.27-62.99,35.27-113.37s-11.76-89.3-35.27-114.49c-23.51-25.19-58.6-37.79-105.25-37.79h-75.02v303.45Z"/>
  <path d="M496.89,739.12l143.33-397.5h64.94l143.33,397.5h-52.63l-39.75-113.09h-166.84l-39.75,113.09h-52.63ZM605.5,579h134.37l-67.19-195.39-67.18,195.39Z"/>
  <path d="M1049.48,748.07c-37.7,0-70.08-8.31-97.14-24.91-27.07-16.6-47.87-40.4-62.43-71.38-14.55-30.98-21.83-67.93-21.83-110.85s7.28-79.97,21.83-111.13c14.56-31.16,35.36-55.15,62.43-71.94,27.06-16.8,59.43-25.2,97.14-25.2s70.63,8.4,97.7,25.2c27.06,16.8,47.87,40.78,62.42,71.94,14.56,31.17,21.84,68.22,21.84,111.13s-7.28,79.88-21.84,110.85c-14.55,30.98-35.37,54.78-62.42,71.38-27.06,16.6-59.62,24.91-97.7,24.91Z"/>
  <path d="M1300.3,739.12v-397.5h48.15v397.5h-48.15Z"/>
  <path d="M1405.56,739.12l143.33-397.5h64.94l143.33,397.5h-52.63l-39.75-113.09h-166.84l-39.75,113.09h-52.62ZM1514.17,579h134.37l-67.19-195.39-67.18,195.39Z"/>
</svg>
