<svg xmlns="http://www.w3.org/2000/svg" viewBox="0 0 512 512" fill="currentColor" role="img" aria-label="DAOIA">
  <path d="M255.7,480.24c-40.7,0-75.65-8.97-104.87-26.89-29.22-17.92-51.68-43.61-67.39-77.06-15.71-33.44-23.57-73.33-23.57-119.68s7.86-86.33,23.57-119.98c15.72-33.64,38.17-59.53,67.39-77.67,29.21-18.13,64.16-27.2,104.87-27.2s76.25,9.07,105.47,27.2c29.21,18.13,51.68,44.03,67.39,77.67,15.72,33.65,23.58,73.64,23.58,119.98s-7.86,86.23-23.58,119.68c-15.71,33.45-38.18,59.14-67.39,77.06-29.22,17.92-64.37,26.89-105.47,26.89Z"/>
</svg>
